<svg width="130" height="35" viewBox="0 0 130 35" fill="none" xmlns="http://www.w3.org/2000/svg">
<path d="M21.94 20.448C21.94 21.984 21.52 23.232 20.68 24.192C19.864 25.152 18.76 25.86 17.368 26.316C15.976 26.772 14.44 27 12.76 27H0.196V1.44H15.028C16.228 1.44 17.26 1.764 18.124 2.412C19.012 3.036 19.684 3.852 20.14 4.86C20.62 5.868 20.86 6.912 20.86 7.992C20.86 9.168 20.548 10.308 19.924 11.412C19.324 12.516 18.412 13.344 17.188 13.896C18.652 14.328 19.804 15.084 20.644 16.164C21.508 17.244 21.94 18.672 21.94 20.448ZM7.216 7.416V11.34H12.004C12.484 11.34 12.916 11.208 13.3 10.944C13.708 10.68 13.912 10.152 13.912 9.36C13.912 8.664 13.744 8.172 13.408 7.884C13.072 7.572 12.676 7.416 12.22 7.416H7.216ZM14.812 19.008C14.812 18.384 14.644 17.868 14.308 17.46C13.972 17.028 13.54 16.812 13.012 16.812H7.216V21.096H12.76C13.336 21.096 13.816 20.916 14.2 20.556C14.608 20.196 14.812 19.68 14.812 19.008ZM37.4355 13.896C36.1155 13.896 34.9155 14.04 33.8355 14.328C32.7555 14.616 31.9515 15.096 31.4235 15.768V27H24.5835V8.064H30.8475V11.664C31.5195 10.392 32.3595 9.42 33.3675 8.748C34.3755 8.052 35.4435 7.704 36.5715 7.704C37.0275 7.704 37.3155 7.716 37.4355 7.74V13.896ZM50.108 27.36C48.548 27.36 47.144 26.952 45.896 26.136C44.672 25.32 43.7 24.312 42.98 23.112V34.668H40.532V8.244H42.728V11.88C43.472 10.704 44.456 9.756 45.68 9.036C46.928 8.292 48.272 7.92 49.712 7.92C51.008 7.92 52.196 8.196 53.276 8.748C54.356 9.276 55.292 9.996 56.084 10.908C56.9 11.82 57.524 12.864 57.956 14.04C58.388 15.192 58.604 16.392 58.604 17.64C58.604 19.392 58.244 21.012 57.524 22.5C56.828 23.964 55.832 25.14 54.536 26.028C53.264 26.916 51.788 27.36 50.108 27.36ZM49.424 25.2C50.792 25.2 51.968 24.84 52.952 24.12C53.96 23.376 54.74 22.428 55.292 21.276C55.844 20.124 56.12 18.912 56.12 17.64C56.12 16.296 55.808 15.048 55.184 13.896C54.56 12.744 53.72 11.82 52.664 11.124C51.632 10.428 50.456 10.08 49.136 10.08C48.32 10.08 47.456 10.296 46.544 10.728C45.656 11.136 44.864 11.7 44.168 12.42C43.496 13.116 43.1 13.884 42.98 14.724V20.484C43.532 21.804 44.396 22.92 45.572 23.832C46.748 24.744 48.032 25.2 49.424 25.2ZM70.8508 27.36C69.0508 27.36 67.4428 26.916 66.0268 26.028C64.6108 25.14 63.4948 23.952 62.6788 22.464C61.8628 20.976 61.4548 19.344 61.4548 17.568C61.4548 15.816 61.8508 14.208 62.6428 12.744C63.4588 11.28 64.5748 10.116 65.9908 9.252C67.4068 8.364 69.0148 7.92 70.8148 7.92C72.6628 7.92 74.2828 8.364 75.6748 9.252C77.0668 10.14 78.1468 11.316 78.9148 12.78C79.7068 14.22 80.1028 15.804 80.1028 17.532C80.1028 17.916 80.0908 18.24 80.0668 18.504H64.0108C64.1308 19.848 64.5148 21.048 65.1628 22.104C65.8108 23.136 66.6388 23.964 67.6468 24.588C68.6548 25.188 69.7588 25.488 70.9588 25.488C72.1828 25.488 73.3348 25.176 74.4148 24.552C75.4948 23.928 76.2628 23.112 76.7188 22.104L78.8428 22.68C78.4588 23.592 77.8588 24.408 77.0428 25.128C76.2508 25.824 75.3268 26.376 74.2708 26.784C73.2148 27.168 72.0748 27.36 70.8508 27.36ZM63.9388 16.74H77.7988C77.7028 15.396 77.3308 14.208 76.6828 13.176C76.0348 12.12 75.2068 11.304 74.1988 10.728C73.1908 10.128 72.0748 9.828 70.8508 9.828C69.6268 9.828 68.5108 10.128 67.5028 10.728C66.4948 11.304 65.6668 12.12 65.0188 13.176C64.3948 14.208 64.0348 15.396 63.9388 16.74ZM71.5708 4.68L69.9508 4.068L72.0748 0.719999H74.6668L71.5708 4.68ZM82.6197 17.676C82.6197 15.9 82.9797 14.28 83.6997 12.816C84.4437 11.328 85.4637 10.14 86.7597 9.252C88.0557 8.364 89.5317 7.92 91.1877 7.92C92.7477 7.92 94.1397 8.34 95.3637 9.18C96.6117 9.996 97.5837 10.992 98.2797 12.168V0.719999H100.728V24.048C100.728 24.696 101.016 25.032 101.592 25.056V27C101.112 27.072 100.74 27.096 100.476 27.072C99.9477 27.048 99.4917 26.856 99.1077 26.496C98.7477 26.112 98.5677 25.68 98.5677 25.2V23.364C97.8237 24.588 96.8157 25.56 95.5437 26.28C94.2717 27 92.9517 27.36 91.5837 27.36C90.2877 27.36 89.0877 27.096 87.9837 26.568C86.8797 26.04 85.9197 25.32 85.1037 24.408C84.3117 23.496 83.6997 22.464 83.2677 21.312C82.8357 20.136 82.6197 18.924 82.6197 17.676ZM98.2797 20.556V14.76C97.9677 13.896 97.4637 13.116 96.7677 12.42C96.0717 11.7 95.2797 11.136 94.3917 10.728C93.5277 10.296 92.6637 10.08 91.7997 10.08C90.4557 10.08 89.2797 10.452 88.2717 11.196C87.2877 11.916 86.5197 12.864 85.9677 14.04C85.4157 15.192 85.1397 16.404 85.1397 17.676C85.1397 19.02 85.4397 20.268 86.0397 21.42C86.6637 22.572 87.5037 23.496 88.5597 24.192C89.6157 24.864 90.8037 25.2 92.1237 25.2C92.9397 25.2 93.7917 24.996 94.6797 24.588C95.5917 24.156 96.3837 23.592 97.0557 22.896C97.7517 22.2 98.1597 21.42 98.2797 20.556ZM106.274 4.32V0.719999H108.722V4.32H106.274ZM106.274 27V8.244H108.722V27H106.274ZM112.602 21.6C112.602 20.448 112.938 19.452 113.61 18.612C114.282 17.748 115.206 17.076 116.382 16.596C117.582 16.116 118.962 15.876 120.522 15.876C121.434 15.876 122.382 15.96 123.366 16.128C124.35 16.272 125.226 16.476 125.994 16.74V15.156C125.994 13.572 125.526 12.312 124.59 11.376C123.654 10.44 122.358 9.972 120.702 9.972C119.718 9.972 118.734 10.164 117.75 10.548C116.766 10.908 115.746 11.448 114.69 12.168L113.754 10.44C114.978 9.6 116.178 8.976 117.354 8.568C118.53 8.136 119.73 7.92 120.954 7.92C123.258 7.92 125.082 8.58 126.426 9.9C127.77 11.22 128.442 13.044 128.442 15.372V24.048C128.442 24.696 128.742 25.032 129.342 25.056V27C128.814 27.072 128.442 27.096 128.226 27.072C127.626 27.048 127.17 26.856 126.858 26.496C126.546 26.136 126.378 25.752 126.354 25.344L126.318 23.976C125.478 25.056 124.386 25.896 123.042 26.496C121.698 27.072 120.33 27.36 118.938 27.36C117.714 27.36 116.622 27.108 115.662 26.604C114.702 26.076 113.946 25.38 113.394 24.516C112.866 23.628 112.602 22.656 112.602 21.6ZM125.166 23.04C125.718 22.392 125.994 21.792 125.994 21.24V18.504C124.338 17.856 122.61 17.532 120.81 17.532C119.058 17.532 117.642 17.88 116.562 18.576C115.482 19.272 114.942 20.22 114.942 21.42C114.942 22.452 115.338 23.388 116.13 24.228C116.946 25.068 118.074 25.488 119.514 25.488C120.69 25.488 121.782 25.26 122.79 24.804C123.822 24.348 124.614 23.76 125.166 23.04Z" fill="white"/>
</svg>
